# xmcd CD database file
#
# Track frame offsets:
#	180
#	11627
#	24459
#	37624
#	52415
#	65807
#	80118
#	95850
#	110672
#	132469
#	143273
#	159559
#	176131
#	187464
#	201033
#	211702
#	226524
#	239387
#	247907
#	259559
#
# Disc length: 3644 seconds
#
# Revision: 0
# Processed by: cddbd v1.5.2PL0 Copyright (c) Steve Scherf et al.
# Submitted via: CDex 1.51
#
DISCID=1b0e3a14
DTITLE=Jazz - Jazz
DYEAR=2005
DGENRE=Jazz
TTITLE0=Django Reinhardt - I know that you know
TTITLE1=Count Basie - What's your number
TTITLE2=Sidney Bechet - Bechet's steady rider
TTITLE3=Artie Shaw - Solid Sam
TTITLE4=Artie Shaw - St. James Infirmary
TTITLE5=Glenn Miller - Fooled
TTITLE6=Glenn Miller - Skylark
TTITLE7=Artie Shaw and his orchestra - I'll never be the same
TTITLE8=Louis Armstrong - That's my desire
TTITLE9=Louis Armstrong - Lover
TTITLE10=Charlie Parker - Mohawk
TTITLE11=Charlie Parker - East of the sun (west of the moon)
TTITLE12=Peggy Lee - They can't take it away from me
TTITLE13=Les Brown - Blue moon
TTITLE14=Nat King Cole - That's my girl
TTITLE15=Peggy Lee - Moon flowers
TTITLE16=Peggy Lee - Forgive me
TTITLE17=Nat King Cole - Almost like being in love
TTITLE18=Les Brown - No other love have I
TTITLE19=Les Brown - Begin the beguine
EXTD=YEAR: 2005
EXTT0=
EXTT1=
EXTT2=
EXTT3=
EXTT4=
EXTT5=
EXTT6=
EXTT7=
EXTT8=
EXTT9=
EXTT10=
EXTT11=
EXTT12=
EXTT13=
EXTT14=
EXTT15=
EXTT16=
EXTT17=
EXTT18=
EXTT19=
PLAYORDER=
